<svg width="39" height="38" viewBox="0 0 39 38" fill="none" xmlns="http://www.w3.org/2000/svg">
<path d="M30.2765 0H9.2914C4.59286 0 0.783936 3.89615 0.783936 8.70229V29.2977C0.783936 34.1039 4.59286 38 9.2914 38H30.2765C34.975 38 38.7839 34.1039 38.7839 29.2977V8.70229C38.7839 3.89615 34.975 0 30.2765 0Z" fill="#F9F9FC"/>
<path fill-rule="evenodd" clip-rule="evenodd" d="M22.6044 16.11C22.2899 7.85883 16.9943 7.50464 16.9943 7.50464C16.6041 15.035 22.6044 16.11 22.6044 16.11Z" fill="#4866B3"/>
<path fill-rule="evenodd" clip-rule="evenodd" d="M22.4345 17.2399C22.3807 17.1794 22.3149 17.1314 22.2416 17.0988C22.1683 17.0663 22.089 17.0502 22.0091 17.0513H17.5796C17.4997 17.0552 17.4214 17.0756 17.3494 17.1113C17.2774 17.1471 17.2133 17.1974 17.161 17.2593C17.0996 17.3128 17.05 17.3789 17.0153 17.4533C16.9806 17.5277 16.9616 17.6088 16.9597 17.6912V19.2953C16.9616 19.3806 16.9804 19.4646 17.015 19.5422C17.0496 19.6198 17.0993 19.6894 17.161 19.7467C17.2147 19.8059 17.2793 19.8536 17.3512 19.887C17.423 19.9204 17.5007 19.9389 17.5796 19.9413H19.8292V25.5526C19.8316 26.0675 19.6511 26.5657 19.3212 26.9546C18.9913 27.3435 18.5345 27.5966 18.0359 27.6667H17.5796C17.4143 27.6724 17.2574 27.7425 17.141 27.8626C17.0246 27.9828 16.9575 28.1439 16.9534 28.313V29.9171C16.9516 30.0809 17.0073 30.24 17.1105 30.3653C17.1677 30.4286 17.2374 30.4787 17.315 30.5122C17.3926 30.5458 17.4763 30.562 17.5606 30.5599H17.7778C19.0173 30.5535 20.2073 30.0621 21.1038 29.1865C22.0003 28.3109 22.5352 27.1176 22.5987 25.8514C22.6169 25.7558 22.6254 25.6586 22.6239 25.5613V17.6912C22.6243 17.6067 22.6077 17.5231 22.5751 17.4454C22.5425 17.3678 22.4946 17.2978 22.4345 17.2399Z" fill="#12283B"/>
</svg>
