<svg width="85" height="32" viewBox="0 0 85 32" fill="none" xmlns="http://www.w3.org/2000/svg">
<path d="M46.954 10.614H44.9242L42.1745 15.7294V10.614H40.3584V23.1489H42.1745V19.5009L43.0338 17.8963L45.0775 23.1489H47.0098L44.1439 15.8254L46.954 10.614Z" fill="#272727"/>
<path d="M52.7557 20.1592C52.7557 20.9317 52.124 21.5626 51.3436 21.5626C50.5587 21.5626 49.9177 20.9317 49.9177 20.1592V10.614H48.1016V20.0723C48.1016 21.8323 49.5554 23.2586 51.339 23.2586C53.1179 23.2586 54.5625 21.8277 54.5625 20.0723V10.614H52.7464V20.1592H52.7557Z" fill="#272727"/>
<path d="M59.0958 10.614H55.8584V23.1534H59.0958C60.8748 23.1534 62.3193 21.7317 62.3193 19.9809V13.7866C62.3193 12.0357 60.8701 10.614 59.0958 10.614ZM60.5032 20.0677C60.5032 20.8312 59.8715 21.4574 59.0912 21.4574H57.6652V12.3054H59.0912C59.8669 12.3054 60.5032 12.9272 60.5032 13.6952V20.0677Z" fill="#272727"/>
<path d="M67.3819 10.614H65.6355L62.895 23.1534H64.7344L65.1385 21.2014H67.8835L68.3016 23.1534H70.1549L67.3958 10.6643L67.3819 10.614ZM67.5166 19.5192H65.5054L66.504 14.7603L67.5166 19.5192Z" fill="#272727"/>
<path d="M73.8937 10.5044C72.1054 10.5044 70.6562 11.9353 70.6562 13.6907V20.0678C70.6562 21.8278 72.1101 23.2541 73.8937 23.2541C75.6726 23.2541 77.1172 21.8233 77.1172 20.0678V17.9467H73.7218V19.6244H75.3011V20.1593C75.3011 20.9318 74.6694 21.5627 73.889 21.5627C73.1041 21.5627 72.4631 20.9318 72.4631 20.1593V13.6038C72.4631 12.8313 73.1041 12.2004 73.889 12.2004C74.6647 12.2004 75.3011 12.8313 75.3011 13.6038V14.3993H77.1172V13.6953C77.1172 11.9353 75.668 10.5044 73.8937 10.5044Z" fill="#272727"/>
<path d="M81.6417 10.5044C79.8535 10.5044 78.4043 11.9353 78.4043 13.6907V20.0678C78.4043 21.8278 79.8581 23.2541 81.6417 23.2541C83.4207 23.2541 84.8652 21.8233 84.8652 20.0678V13.6953C84.8652 11.9353 83.416 10.5044 81.6417 10.5044ZM80.2158 13.6038C80.2158 12.8313 80.8568 12.2004 81.6417 12.2004C82.4174 12.2004 83.0537 12.8313 83.0537 13.6038V20.1638C83.0537 20.9364 82.4221 21.5673 81.6417 21.5673C80.8568 21.5673 80.2158 20.9364 80.2158 20.1638V13.6038Z" fill="#272727"/>
<path fill-rule="evenodd" clip-rule="evenodd" d="M12.4622 0.420802C21.1341 -1.57691 29.8199 3.73052 31.845 12.2654C33.8748 20.8002 28.4822 29.3488 19.815 31.342C11.1431 33.3397 2.45734 28.0322 0.427557 19.4974C-1.60222 10.9625 3.7904 2.41852 12.4622 0.420802Z" fill="#EE3942"/>
<path fill-rule="evenodd" clip-rule="evenodd" d="M17.1723 13.3491C17.516 13.6417 18.0269 13.6097 18.3242 13.2714C18.6214 12.9377 18.5843 12.4302 18.2452 12.1376C17.9061 11.8451 17.3906 11.8816 17.0933 12.2154C16.8007 12.5491 16.8332 13.0565 17.1723 13.3491Z" fill="white"/>
<path fill-rule="evenodd" clip-rule="evenodd" d="M13.8281 21.6506C13.5355 22.2861 13.136 22.8803 12.3603 23.6483C12.1792 23.8266 12.5926 24.1558 12.7784 24.4026C12.8109 25.1295 12.8527 26.8438 13.1453 27.3329L13.8281 27.3192C13.3822 26.3501 13.5819 25.2941 13.6005 24.1741C13.5726 23.9912 13.4611 23.8221 13.3682 23.6392C13.6748 22.9626 13.9999 22.5466 14.1579 21.7192L13.8281 21.6506Z" fill="white"/>
<path fill-rule="evenodd" clip-rule="evenodd" d="M19.151 22.2908L18.3428 22.2268C18.4124 22.9948 18.7515 23.4611 19.1045 23.8999C18.942 24.8051 18.7004 25.8291 18.7515 27.1777H19.4529C19.5736 25.9845 19.8477 24.5445 20.2053 23.7262C19.7548 23.3377 19.3089 22.6565 19.151 22.2908Z" fill="white"/>
<path d="M18.7889 17.3994V17.084C18.7889 17.0291 18.7424 16.9834 18.682 16.9834C18.6216 16.9834 18.5752 17.0291 18.5752 17.084V17.3994C18.5752 17.4223 18.5891 17.4451 18.6031 17.4634C18.6588 17.468 18.7099 17.468 18.7563 17.4725C18.7749 17.4543 18.7889 17.4268 18.7889 17.3994Z" fill="white"/>
<path d="M17.6321 17.1616V16.8462C17.6321 16.7913 17.5857 16.7456 17.5253 16.7456C17.4649 16.7456 17.4185 16.7913 17.4185 16.8462V17.157C17.451 17.1936 17.4974 17.2256 17.5532 17.253C17.5996 17.2393 17.6321 17.2073 17.6321 17.1616Z" fill="white"/>
<path fill-rule="evenodd" clip-rule="evenodd" d="M19.1693 15.7583C19.0996 15.7492 19.0996 15.7446 19.0904 15.7446C19.0207 15.9823 18.7977 16.1515 18.519 16.1606L17.7387 16.1835C17.6365 16.1881 17.539 16.1652 17.4461 16.1286C17.4322 16.1972 17.4229 16.2703 17.4136 16.3481C17.4972 16.5263 17.813 16.6818 18.2822 16.7458C18.9789 16.8418 19.7267 16.6818 19.9729 16.4075C20.2144 16.1332 19.866 15.8498 19.1693 15.7583Z" fill="white"/>
<path fill-rule="evenodd" clip-rule="evenodd" d="M14.9985 16.6084C15.0543 16.6221 15.11 16.6358 15.1611 16.645L15.2308 16.4576L15.0078 16.4438C15.0032 16.5033 15.0032 16.5581 14.9985 16.6084Z" fill="white"/>
<path fill-rule="evenodd" clip-rule="evenodd" d="M11.5984 9.17533C12.3183 9.39476 13.4703 8.72276 14.4689 8.7959C15.2771 8.85533 16.6334 9.1799 17.3858 9.57305C17.3905 9.57762 17.3951 9.57762 17.3998 9.58219L16.3129 12.5536C16.3268 12.8142 16.2432 13.0748 16.0574 13.285C16.0528 13.2896 16.0435 13.2942 16.0388 13.3033L15.3375 15.2142L15.4954 15.2233C15.5326 15.2279 15.5697 15.2325 15.6069 15.2416C15.6208 15.1959 15.6301 15.1456 15.644 15.0999C15.7602 14.693 15.9181 14.3593 16.0853 14.1353L16.652 12.5902C16.6705 12.453 16.7216 12.3205 16.7959 12.2016L19.5596 4.64962C19.5921 4.56732 19.5457 4.47132 19.4621 4.44389C19.4063 4.4256 19.3506 4.43475 19.3088 4.46675C19.3088 4.4576 19.3088 4.45303 19.3134 4.44389C18.979 4.81419 16.717 4.54903 14.7244 4.50789C13.2473 4.47589 11.6541 4.36618 10.5812 4.88276C9.89376 5.55933 8.68611 7.63019 8.07764 8.74562C9.48501 8.51248 10.6648 8.8919 11.5984 9.17533Z" fill="white"/>
<path fill-rule="evenodd" clip-rule="evenodd" d="M26.295 15.4612C24.9434 14.8166 24.8598 13.9938 23.7543 13.1298C23.6289 13.1664 23.5546 13.1572 23.471 13.1252C23.68 12.9698 23.9726 12.7549 24.4278 13.2075C24.2977 12.6498 23.3502 12.3801 22.6999 12.7915C22.4955 12.5858 22.5048 12.3572 22.477 12.1104C22.2308 12.4212 22.1565 12.7824 22.1472 13.1618C21.7942 13.0384 21.4179 13.1161 21.0603 13.3949C20.5819 13.7698 20.6655 13.8521 20.0617 14.0624C20.1453 14.1401 20.4286 14.1172 20.5726 14.0258C20.3357 14.3778 19.8155 14.5241 19.4253 14.4006C19.4996 14.6384 19.8155 14.7024 20.1035 14.6749C19.8712 14.8578 19.6436 15.0772 19.0491 14.9584C19.2395 15.1366 19.5089 15.2784 19.8294 15.2875C19.7272 15.4018 19.6297 15.5024 19.5368 15.5892C20.2428 15.8041 20.3311 16.1606 20.2103 16.4898V17.0521C20.2103 17.0566 20.2707 17.0749 20.266 17.1709C20.2567 17.3355 20.057 17.4772 19.6669 17.6006C19.56 17.6235 19.4253 17.6372 19.2674 17.6464C19.3603 17.7561 19.4067 17.8841 19.4067 18.0212V18.0349V18.0486L19.1792 20.4166C19.1745 20.6086 19.1141 20.7778 19.0119 20.9012C18.9237 21.0018 18.7658 21.1252 18.501 21.1252C18.4917 21.1252 18.4824 21.1252 18.4731 21.1252C18.2363 21.1206 17.8322 21.0018 17.8043 20.3069V20.2978V20.2886L17.8925 18.5195C17.6417 18.4875 17.2376 18.4372 16.9032 18.3778C16.8428 18.3686 16.7871 18.3595 16.7267 18.3458V20.4029V20.4075C16.7174 20.7961 16.4666 21.0521 16.0671 21.0658H16.0393L16.0114 21.0612C15.6259 20.9972 15.4447 20.7824 15.3983 20.3344V20.3252L15.3286 18.3046C15.1985 18.2909 15.0731 18.2818 14.9524 18.2681C14.5297 18.2315 14.1628 18.1995 13.8794 18.1309C13.8655 18.1309 13.8516 18.1264 13.8423 18.1264C13.5357 18.0669 13.3081 17.9161 13.1641 17.6692C13.1177 17.5869 13.0852 17.5001 13.0573 17.4224C12.9412 17.4315 12.8436 17.4452 12.7832 17.4681C12.5603 17.5412 12.3559 17.6418 12.1748 17.7652C11.3852 17.1984 10.289 16.9606 9.42041 17.4132C8.34281 17.9709 8.66795 18.9675 7.40456 19.1549C8.08735 19.4384 8.95128 19.1138 9.30429 18.3961C9.14172 19.2144 7.30702 20.2429 6.64281 18.7526C6.37341 19.0498 6.59636 19.5984 6.94008 19.7858C6.39199 19.9229 6.17833 19.6212 5.97861 19.2875C5.90893 20.8692 7.05156 21.7515 8.73762 20.9286C8.58899 21.2669 7.98516 21.6281 7.00511 21.5641C9.14172 22.1766 10.354 20.2886 10.3633 19.4704C10.4376 19.7858 10.3726 20.0784 10.1822 20.4624C11.5524 19.7675 10.4005 18.2361 11.6128 18.1355C11.6639 18.1309 11.7103 18.1309 11.7567 18.1309C11.4595 18.4784 11.2783 18.9309 11.2551 19.4886C11.2365 19.9092 11.3805 20.2749 11.636 20.5675C11.3062 21.5138 11.1297 22.5012 10.642 23.2235C10.5491 23.7309 10.7674 24.2841 10.8696 24.8555C11.0693 26.0212 10.8882 26.6109 10.851 27.3104L11.6824 27.3058C11.8171 26.5149 11.8404 25.2806 11.7475 23.6989C12.4906 23.1001 13.1688 22.2224 13.5729 21.3081L13.5589 21.2989C15.9231 21.4406 16.5966 21.9024 19.4114 21.9892C19.6436 22.6018 20.0988 23.2464 20.6051 23.6304C20.9488 24.4806 20.8559 25.9389 20.9349 27.1412H21.6827C21.5991 25.7378 21.6827 24.6864 21.7384 23.5755C21.4783 22.6612 21.2786 21.8978 21.2832 21.2395C21.5062 20.9835 21.6688 20.6635 21.7384 20.2795L21.7477 20.2932C21.9057 18.4144 22.0682 16.3024 22.686 15.6395C23.4802 15.5572 24.4603 16.3115 25.863 16.4898C26.021 16.3801 26.0535 16.1469 26.0395 15.8635C26.1696 15.8361 26.2764 15.7629 26.295 15.4612Z" fill="white"/>
<path fill-rule="evenodd" clip-rule="evenodd" d="M18.9699 17.7284C18.7702 17.733 18.6308 17.733 18.2407 17.6918C17.6461 17.6278 17.1166 17.4358 17.0934 17.0381C17.0934 17.0381 17.1259 16.3478 17.2142 15.9547C17.2095 15.9455 17.1213 15.7855 17.1213 15.7764C17.1213 15.7764 16.9448 15.1364 17.0237 15.0175C17.047 14.981 17.0841 14.9535 17.1259 14.9353L17.2978 15.5844C17.3256 15.6804 17.3767 15.7627 17.4464 15.8221C17.5161 15.8907 17.6136 15.9318 17.7251 15.9273L18.5054 15.9044C18.7005 15.8998 18.8538 15.7673 18.8538 15.589C18.8538 15.365 18.6866 15.2827 18.4915 15.2918L18.0224 15.3055L17.7994 14.4781C17.7901 14.4415 17.7762 14.4095 17.7623 14.3821C17.7297 14.1307 17.5486 13.8701 17.2281 13.8015C16.8565 13.7238 16.6289 13.8701 16.327 14.2267C16.1412 14.4461 15.9647 14.8575 15.8439 15.3421C15.8811 15.3695 15.9183 15.397 15.9508 15.429C16.0762 15.5524 16.1412 15.717 16.1319 15.8861V15.8907V15.8998C16.118 16.0644 16.039 16.2153 15.9043 16.3204C15.8439 16.3707 15.7743 16.4073 15.7 16.4301C15.7 16.4667 15.6953 16.5033 15.6953 16.5398C15.6953 16.6267 15.7 16.709 15.7092 16.7913C15.8765 16.837 16.0344 16.8827 16.183 16.933C16.5639 17.0564 16.6661 17.2941 16.6893 17.4404C16.7125 17.5181 16.7265 17.6004 16.7265 17.6873V18.0667C16.7961 18.085 16.8658 18.1033 16.9448 18.1124C17.451 18.2038 18.1292 18.277 18.1617 18.2815L18.0595 20.2884C18.0735 20.6633 18.2035 20.8553 18.4776 20.8644C18.7655 20.8735 18.9095 20.677 18.9188 20.3981L19.1464 18.021C19.1464 17.829 18.9931 17.7284 18.9699 17.7284Z" fill="white"/>
<path fill-rule="evenodd" clip-rule="evenodd" d="M16.4433 17.4954C16.4293 17.3628 16.3272 17.2394 16.1042 17.1708C15.6258 17.0154 15.1381 16.8965 14.7293 16.8097C14.734 16.6908 14.7433 16.5719 14.7526 16.4257L14.3113 16.3937C13.9676 16.3571 13.7911 16.1331 13.8282 15.8268C13.8422 15.6988 13.9397 15.5982 14.0558 15.5342C13.9955 15.5937 13.9583 15.6668 13.9537 15.7491C13.9351 15.9548 14.1162 16.1331 14.3531 16.1468L15.4214 16.2108C15.6583 16.2291 15.8627 16.0782 15.8813 15.8725C15.8952 15.6668 15.7187 15.4931 15.4818 15.4748L14.8873 15.4382L14.8919 15.3605C14.9616 15.0497 15.0684 14.7571 15.1845 14.5834C15.375 14.2999 15.2449 13.7285 14.734 13.6188C14.3624 13.5457 14.1348 13.6874 13.8375 14.0394C13.4474 14.5011 13.0851 16.0508 13.2523 17.0611C13.2941 17.3217 13.3498 17.7697 13.8979 17.8748C13.9119 17.8794 13.9304 17.8794 13.9444 17.8839C14.3252 17.9708 14.8919 17.9982 15.5097 18.0622C15.5375 18.0668 15.5654 18.0714 15.5886 18.0759L15.6769 20.2885C15.714 20.6588 15.8394 20.7502 16.0763 20.7914C16.3272 20.7822 16.4804 20.6451 16.4851 20.3799V17.6828C16.4758 17.6188 16.4619 17.5548 16.4433 17.4954Z" fill="white"/>
<path fill-rule="evenodd" clip-rule="evenodd" d="M14.7385 13.189C15.0683 13.4724 15.5746 13.4404 15.8626 13.1158C16.1505 12.7913 16.1134 12.293 15.7836 12.0095C15.4538 11.7261 14.9475 11.7581 14.6596 12.0827C14.3716 12.4118 14.4087 12.9055 14.7385 13.189Z" fill="white"/>
<path d="M19.3787 17.0427C19.3787 16.9879 19.3323 16.9421 19.2719 16.9421C19.2115 16.9421 19.165 16.9879 19.165 17.0427V17.3581C19.165 17.413 19.2115 17.4587 19.2719 17.4587C19.3323 17.4587 19.3787 17.413 19.3787 17.3581V17.0427Z" fill="white"/>
<path d="M19.908 16.8782C19.908 16.8233 19.8615 16.7776 19.8012 16.7776C19.7408 16.7776 19.6943 16.8233 19.6943 16.8782V17.1936C19.6943 17.2484 19.7408 17.2942 19.8012 17.2942C19.8615 17.2942 19.908 17.2484 19.908 17.1936V16.8782Z" fill="white"/>
<path d="M18.0873 16.9238C18.0269 16.9238 17.9805 16.9695 17.9805 17.0244V17.3398C17.9805 17.3627 17.9944 17.3764 18.0037 17.3947C18.0501 17.4038 18.0966 17.413 18.1477 17.4175C18.1709 17.3993 18.1895 17.3718 18.1895 17.3398V17.0244C18.1941 16.9695 18.1477 16.9238 18.0873 16.9238Z" fill="white"/>
</svg>
