<svg width="47" height="47" viewBox="0 0 47 47" fill="none" xmlns="http://www.w3.org/2000/svg">
<path fill-rule="evenodd" clip-rule="evenodd" d="M21.3708 3.38524C21.3708 0.37589 17.7324 -1.1312 15.6044 0.996734L1.05081 15.5504C-1.07712 17.6783 0.429974 21.3167 3.43932 21.3167H5.85889C6.75475 21.3167 7.61392 20.9608 8.24739 20.3274L20.3814 8.19331C21.0149 7.55984 21.3708 6.70067 21.3708 5.8048V3.38524Z" fill="#2B2C7E"/>
<path fill-rule="evenodd" clip-rule="evenodd" d="M24.7499 3.38463C24.7499 0.375279 28.3884 -1.13181 30.5163 0.996124L45.0699 15.5497C47.1979 17.6777 45.6908 21.3161 42.6814 21.3161H40.2618C39.366 21.3161 38.5068 20.9602 37.8733 20.3268L25.7393 8.1927C25.1058 7.55923 24.7499 6.70006 24.7499 5.80419V3.38463Z" fill="#8C4C7B"/>
<path fill-rule="evenodd" clip-rule="evenodd" d="M24.7499 42.625C24.7499 45.6344 28.3884 47.1415 30.5163 45.0135L45.0699 30.4599C47.1979 28.332 45.6908 24.6935 42.6814 24.6935H40.2618C39.366 24.6935 38.5068 25.0494 37.8733 25.6829L25.7393 37.8169C25.1058 38.4504 24.7499 39.3096 24.7499 40.2054V42.625Z" fill="#6F8BC7"/>
<path fill-rule="evenodd" clip-rule="evenodd" d="M21.3708 42.625C21.3708 45.6344 17.7324 47.1415 15.6044 45.0135L1.05081 30.4599C-1.07712 28.332 0.429974 24.6935 3.43932 24.6935H5.85889C6.75475 24.6935 7.61392 25.0494 8.24739 25.6829L20.3814 37.8169C21.0149 38.4504 21.3708 39.3096 21.3708 40.2054V42.625Z" fill="#4866B3"/>
</svg>
