<svg width="86" height="32" viewBox="0 0 86 32" fill="none" xmlns="http://www.w3.org/2000/svg">
<path d="M6.76116 10.6137H4.73138L1.98165 15.7291V10.6137H0.165527V23.1486H1.98165V19.5006L2.84094 17.896L4.88466 23.1486H6.8169L3.95105 15.8251L6.76116 10.6137Z" fill="white"/>
<path d="M12.5628 20.1589C12.5628 20.9314 11.9311 21.5623 11.1508 21.5623C10.3658 21.5623 9.72481 20.9314 9.72481 20.1589V10.6137H7.90869V20.072C7.90869 21.832 9.36251 23.2583 11.1461 23.2583C12.9251 23.2583 14.3696 21.8274 14.3696 20.072V10.6137H12.5535V20.1589H12.5628Z" fill="white"/>
<path d="M18.903 10.6137H15.6655V23.1531H18.903C20.6819 23.1531 22.1264 21.7314 22.1264 19.9806V13.7863C22.1264 12.0354 20.6773 10.6137 18.903 10.6137ZM20.3103 20.0674C20.3103 20.8309 19.6786 21.4571 18.8983 21.4571H17.4724V12.3051H18.8983C19.674 12.3051 20.3103 12.9269 20.3103 13.6949V20.0674Z" fill="white"/>
<path d="M27.189 10.6137H25.4426L22.7021 23.1531H24.5415L24.9456 21.2011H27.6907L28.1087 23.1531H29.962L27.203 10.664L27.189 10.6137ZM27.3237 19.5189H25.3125L26.3112 14.76L27.3237 19.5189Z" fill="white"/>
<path d="M33.7008 10.504C31.9126 10.504 30.4634 11.9348 30.4634 13.6903V20.0674C30.4634 21.8274 31.9172 23.2537 33.7008 23.2537C35.4798 23.2537 36.9243 21.8228 36.9243 20.0674V17.9463H33.529V19.624H35.1082V20.1588C35.1082 20.9314 34.4765 21.5623 33.6962 21.5623C32.9112 21.5623 32.2702 20.9314 32.2702 20.1588V13.6034C32.2702 12.8308 32.9112 12.2 33.6962 12.2C34.4719 12.2 35.1082 12.8308 35.1082 13.6034V14.3988H36.9243V13.6948C36.9243 11.9348 35.4751 10.504 33.7008 10.504Z" fill="white"/>
<path d="M41.4489 10.504C39.6606 10.504 38.2114 11.9348 38.2114 13.6903V20.0674C38.2114 21.8274 39.6653 23.2537 41.4489 23.2537C43.2278 23.2537 44.6724 21.8228 44.6724 20.0674V13.6948C44.6724 11.9348 43.2232 10.504 41.4489 10.504ZM40.0229 13.6034C40.0229 12.8308 40.6639 12.2 41.4489 12.2C42.2245 12.2 42.8609 12.8308 42.8609 13.6034V20.1634C42.8609 20.936 42.2292 21.5668 41.4489 21.5668C40.6639 21.5668 40.0229 20.936 40.0229 20.1634V13.6034Z" fill="white"/>
<path fill-rule="evenodd" clip-rule="evenodd" d="M65.2689 0.420313C73.9407 -1.5774 82.6265 3.73003 84.6517 12.2649C86.6815 20.7997 81.2888 29.3483 72.6216 31.3415C63.9498 33.3392 55.264 28.0317 53.2342 19.4969C51.2044 10.962 56.597 2.41803 65.2689 0.420313Z" fill="white"/>
<path fill-rule="evenodd" clip-rule="evenodd" d="M69.9789 13.3486C70.3226 13.6412 70.8335 13.6092 71.1308 13.2709C71.4281 12.9372 71.3909 12.4297 71.0518 12.1372C70.7128 11.8446 70.1972 11.8812 69.8999 12.2149C69.6073 12.5486 69.6398 13.056 69.9789 13.3486Z" fill="#EE3942"/>
<path fill-rule="evenodd" clip-rule="evenodd" d="M66.6347 21.6501C66.3421 22.2856 65.9426 22.8799 65.167 23.6479C64.9858 23.8261 65.3992 24.1553 65.585 24.4021C65.6175 25.129 65.6593 26.8433 65.9519 27.3324L66.6347 27.3187C66.1888 26.3496 66.3885 25.2936 66.4071 24.1736C66.3793 23.9907 66.2678 23.8216 66.1749 23.6387C66.4814 22.9621 66.8066 22.5461 66.9645 21.7187L66.6347 21.6501Z" fill="#EE3942"/>
<path fill-rule="evenodd" clip-rule="evenodd" d="M71.9576 22.2903L71.1494 22.2263C71.2191 22.9943 71.5582 23.4606 71.9112 23.8995C71.7486 24.8046 71.5071 25.8286 71.5582 27.1772H72.2595C72.3803 25.984 72.6543 24.544 73.012 23.7257C72.5614 23.3372 72.1155 22.656 71.9576 22.2903Z" fill="#EE3942"/>
<path d="M71.5955 17.3989V17.0835C71.5955 17.0286 71.549 16.9829 71.4887 16.9829C71.4283 16.9829 71.3818 17.0286 71.3818 17.0835V17.3989C71.3818 17.4218 71.3958 17.4446 71.4097 17.4629C71.4654 17.4675 71.5165 17.4675 71.563 17.4721C71.5816 17.4538 71.5955 17.4263 71.5955 17.3989Z" fill="#EE3942"/>
<path d="M70.4388 17.1611V16.8457C70.4388 16.7908 70.3923 16.7451 70.3319 16.7451C70.2715 16.7451 70.2251 16.7908 70.2251 16.8457V17.1565C70.2576 17.1931 70.3041 17.2251 70.3598 17.2525C70.4062 17.2388 70.4388 17.2068 70.4388 17.1611Z" fill="#EE3942"/>
<path fill-rule="evenodd" clip-rule="evenodd" d="M71.976 15.7579C71.9063 15.7487 71.9063 15.7441 71.897 15.7441C71.8273 15.9819 71.6044 16.151 71.3257 16.1601L70.5454 16.183C70.4432 16.1876 70.3456 16.1647 70.2527 16.1281C70.2388 16.1967 70.2295 16.2699 70.2202 16.3476C70.3038 16.5259 70.6197 16.6813 71.0888 16.7453C71.7855 16.8413 72.5333 16.6813 72.7795 16.407C73.021 16.1327 72.6727 15.8493 71.976 15.7579Z" fill="#EE3942"/>
<path fill-rule="evenodd" clip-rule="evenodd" d="M67.8052 16.6079C67.8609 16.6216 67.9167 16.6354 67.9677 16.6445L68.0374 16.4571L67.8145 16.4434C67.8098 16.5028 67.8098 16.5576 67.8052 16.6079Z" fill="#EE3942"/>
<path fill-rule="evenodd" clip-rule="evenodd" d="M64.405 9.17484C65.125 9.39427 66.2769 8.72227 67.2755 8.79542C68.0837 8.85484 69.44 9.17942 70.1925 9.57256C70.1971 9.57713 70.2018 9.57713 70.2064 9.5817L69.1195 12.5531C69.1335 12.8137 69.0499 13.0743 68.8641 13.2846C68.8594 13.2891 68.8501 13.2937 68.8455 13.3028L68.1441 15.2137L68.302 15.2228C68.3392 15.2274 68.3764 15.232 68.4135 15.2411C68.4274 15.1954 68.4367 15.1451 68.4507 15.0994C68.5668 14.6926 68.7247 14.3588 68.8919 14.1348L69.4586 12.5897C69.4772 12.4526 69.5283 12.32 69.6026 12.2011L72.3662 4.64913C72.3988 4.56683 72.3523 4.47083 72.2687 4.4434C72.213 4.42512 72.1572 4.43426 72.1154 4.46626C72.1154 4.45712 72.1154 4.45254 72.1201 4.4434C71.7856 4.8137 69.5236 4.54854 67.531 4.5074C66.054 4.4754 64.4608 4.36569 63.3878 4.88227C62.7004 5.55884 61.4927 7.6297 60.8843 8.74513C62.2917 8.51199 63.4714 8.89142 64.405 9.17484Z" fill="#EE3942"/>
<path fill-rule="evenodd" clip-rule="evenodd" d="M79.1016 15.4607C77.75 14.8161 77.6664 13.9933 76.5609 13.1293C76.4355 13.1659 76.3612 13.1567 76.2776 13.1247C76.4866 12.9693 76.7792 12.7544 77.2344 13.207C77.1044 12.6493 76.1568 12.3796 75.5066 12.791C75.3022 12.5853 75.3115 12.3567 75.2836 12.1099C75.0374 12.4207 74.9631 12.7819 74.9538 13.1613C74.6008 13.0379 74.2246 13.1156 73.8669 13.3944C73.3885 13.7693 73.4721 13.8516 72.8683 14.0619C72.9519 14.1396 73.2352 14.1167 73.3792 14.0253C73.1423 14.3773 72.6221 14.5236 72.232 14.4001C72.3063 14.6379 72.6221 14.7019 72.9101 14.6744C72.6779 14.8573 72.4503 15.0767 71.8557 14.9579C72.0462 15.1361 72.3156 15.2779 72.6361 15.287C72.5339 15.4013 72.4363 15.5019 72.3434 15.5887C73.0495 15.8036 73.1377 16.1601 73.0169 16.4893V17.0516C73.0169 17.0561 73.0773 17.0744 73.0727 17.1704C73.0634 17.335 72.8637 17.4767 72.4735 17.6001C72.3667 17.623 72.232 17.6367 72.074 17.6459C72.1669 17.7556 72.2134 17.8836 72.2134 18.0207V18.0344V18.0481L71.9858 20.4161C71.9811 20.6081 71.9208 20.7773 71.8186 20.9007C71.7303 21.0013 71.5724 21.1247 71.3076 21.1247C71.2984 21.1247 71.2891 21.1247 71.2798 21.1247C71.0429 21.1201 70.6388 21.0013 70.6109 20.3064V20.2973V20.2882L70.6992 18.519C70.4484 18.487 70.0443 18.4367 69.7098 18.3773C69.6495 18.3681 69.5937 18.359 69.5333 18.3453V20.4024V20.407C69.524 20.7956 69.2732 21.0516 68.8738 21.0653H68.8459L68.818 21.0607C68.4325 20.9967 68.2514 20.7819 68.2049 20.3339V20.3247L68.1352 18.3041C68.0052 18.2904 67.8798 18.2813 67.759 18.2676C67.3363 18.231 66.9694 18.199 66.6861 18.1304C66.6721 18.1304 66.6582 18.1259 66.6489 18.1259C66.3423 18.0664 66.1148 17.9156 65.9708 17.6687C65.9243 17.5864 65.8918 17.4996 65.8639 17.4219C65.7478 17.431 65.6503 17.4447 65.5899 17.4676C65.3669 17.5407 65.1626 17.6413 64.9814 17.7647C64.1918 17.1979 63.0956 16.9601 62.227 17.4127C61.1495 17.9704 61.4746 18.967 60.2112 19.1544C60.894 19.4379 61.7579 19.1133 62.1109 18.3956C61.9484 19.2139 60.1137 20.2424 59.4495 18.7521C59.1801 19.0493 59.403 19.5979 59.7467 19.7853C59.1986 19.9224 58.985 19.6207 58.7852 19.287C58.7156 20.8687 59.8582 21.751 61.5443 20.9281C61.3956 21.2664 60.7918 21.6276 59.8117 21.5636C61.9484 22.1761 63.1607 20.2881 63.1699 19.4699C63.2443 19.7853 63.1792 20.0779 62.9888 20.4619C64.359 19.767 63.2071 18.2356 64.4194 18.135C64.4705 18.1304 64.5169 18.1304 64.5634 18.1304C64.2661 18.4779 64.085 18.9304 64.0617 19.4882C64.0432 19.9087 64.1872 20.2744 64.4426 20.567C64.1128 21.5133 63.9363 22.5007 63.4486 23.223C63.3557 23.7304 63.574 24.2836 63.6762 24.855C63.876 26.0207 63.6948 26.6104 63.6577 27.3099L64.4891 27.3053C64.6238 26.5144 64.647 25.2802 64.5541 23.6984C65.2973 23.0996 65.9754 22.2219 66.3795 21.3076L66.3656 21.2984C68.7298 21.4401 69.4033 21.9019 72.218 21.9887C72.4503 22.6013 72.9055 23.2459 73.4117 23.6299C73.7555 24.4801 73.6626 25.9384 73.7415 27.1407H74.4893C74.4057 25.7373 74.4893 24.6859 74.5451 23.575C74.285 22.6607 74.0852 21.8973 74.0899 21.239C74.3128 20.983 74.4754 20.663 74.5451 20.279L74.5544 20.2927C74.7123 18.4139 74.8749 16.3019 75.4926 15.639C76.2869 15.5567 77.2669 16.311 78.6697 16.4893C78.8276 16.3796 78.8601 16.1464 78.8462 15.863C78.9762 15.8356 79.0831 15.7624 79.1016 15.4607Z" fill="#EE3942"/>
<path fill-rule="evenodd" clip-rule="evenodd" d="M71.7765 17.7279C71.5768 17.7325 71.4375 17.7325 71.0473 17.6913C70.4528 17.6273 69.9233 17.4353 69.9 17.0376C69.9 17.0376 69.9326 16.3473 70.0208 15.9542C70.0162 15.9451 69.9279 15.7851 69.9279 15.7759C69.9279 15.7759 69.7514 15.1359 69.8304 15.0171C69.8536 14.9805 69.8908 14.9531 69.9326 14.9348L70.1044 15.5839C70.1323 15.6799 70.1834 15.7622 70.253 15.8216C70.3227 15.8902 70.4203 15.9313 70.5317 15.9268L71.3121 15.9039C71.5071 15.8993 71.6604 15.7668 71.6604 15.5885C71.6604 15.3645 71.4932 15.2822 71.2981 15.2913L70.829 15.3051L70.6061 14.4776C70.5968 14.4411 70.5828 14.4091 70.5689 14.3816C70.5364 14.1302 70.3552 13.8696 70.0347 13.8011C69.6632 13.7233 69.4356 13.8696 69.1336 14.2262C68.9479 14.4456 68.7714 14.8571 68.6506 15.3416C68.6877 15.3691 68.7249 15.3965 68.7574 15.4285C68.8828 15.5519 68.9479 15.7165 68.9386 15.8856V15.8902V15.8993C68.9246 16.0639 68.8457 16.2148 68.711 16.3199C68.6506 16.3702 68.5809 16.4068 68.5066 16.4296C68.5066 16.4662 68.502 16.5028 68.502 16.5393C68.502 16.6262 68.5066 16.7085 68.5159 16.7908C68.6831 16.8365 68.841 16.8822 68.9897 16.9325C69.3705 17.0559 69.4727 17.2936 69.4959 17.4399C69.5192 17.5176 69.5331 17.5999 69.5331 17.6868V18.0662C69.6028 18.0845 69.6724 18.1028 69.7514 18.1119C70.2577 18.2033 70.9358 18.2765 70.9683 18.2811L70.8662 20.2879C70.8801 20.6628 71.0101 20.8548 71.2842 20.8639C71.5722 20.8731 71.7162 20.6765 71.7255 20.3976L71.953 18.0205C71.953 17.8285 71.7998 17.7279 71.7765 17.7279Z" fill="#EE3942"/>
<path fill-rule="evenodd" clip-rule="evenodd" d="M69.2499 17.4949C69.236 17.3623 69.1338 17.2389 68.9108 17.1703C68.4324 17.0149 67.9447 16.896 67.536 16.8092C67.5406 16.6903 67.5499 16.5714 67.5592 16.4252L67.1179 16.3932C66.7742 16.3566 66.5977 16.1326 66.6349 15.8263C66.6488 15.6983 66.7464 15.5977 66.8625 15.5337C66.8021 15.5932 66.7649 15.6663 66.7603 15.7486C66.7417 15.9543 66.9229 16.1326 67.1597 16.1463L68.2281 16.2103C68.4649 16.2286 68.6693 16.0777 68.6879 15.872C68.7018 15.6663 68.5253 15.4926 68.2884 15.4743L67.6939 15.4377L67.6985 15.36C67.7682 15.0492 67.875 14.7566 67.9912 14.5829C68.1816 14.2994 68.0516 13.728 67.5406 13.6183C67.169 13.5452 66.9414 13.6869 66.6442 14.0389C66.254 14.5006 65.8917 16.0503 66.0589 17.0606C66.1007 17.3212 66.1565 17.7692 66.7046 17.8743C66.7185 17.8789 66.7371 17.8789 66.751 17.8834C67.1319 17.9703 67.6985 17.9977 68.3163 18.0617C68.3442 18.0663 68.372 18.0709 68.3953 18.0755L68.4835 20.288C68.5207 20.6583 68.6461 20.7497 68.883 20.7909C69.1338 20.7817 69.2871 20.6446 69.2917 20.3795V17.6823C69.2824 17.6183 69.2685 17.5543 69.2499 17.4949Z" fill="#EE3942"/>
<path fill-rule="evenodd" clip-rule="evenodd" d="M67.5452 13.1885C67.8749 13.4719 68.3812 13.4399 68.6692 13.1153C68.9572 12.7908 68.92 12.2925 68.5902 12.009C68.2605 11.7256 67.7542 11.7576 67.4662 12.0822C67.1782 12.4113 67.2154 12.905 67.5452 13.1885Z" fill="#EE3942"/>
<path d="M72.1853 17.0422C72.1853 16.9874 72.1389 16.9417 72.0785 16.9417C72.0181 16.9417 71.9717 16.9874 71.9717 17.0422V17.3576C71.9717 17.4125 72.0181 17.4582 72.0785 17.4582C72.1389 17.4582 72.1853 17.4125 72.1853 17.3576V17.0422Z" fill="#EE3942"/>
<path d="M72.7146 16.8777C72.7146 16.8228 72.6682 16.7771 72.6078 16.7771C72.5474 16.7771 72.501 16.8228 72.501 16.8777V17.1931C72.501 17.248 72.5474 17.2937 72.6078 17.2937C72.6682 17.2937 72.7146 17.248 72.7146 17.1931V16.8777Z" fill="#EE3942"/>
<path d="M70.8939 16.9233C70.8336 16.9233 70.7871 16.9691 70.7871 17.0239V17.3393C70.7871 17.3622 70.801 17.3759 70.8103 17.3942C70.8568 17.4033 70.9032 17.4125 70.9543 17.4171C70.9775 17.3988 70.9961 17.3713 70.9961 17.3393V17.0239C71.0008 16.9691 70.9543 16.9233 70.8939 16.9233Z" fill="#EE3942"/>
</svg>
